<svg version="1.1" id="レイヤー_1" xmlns="http://www.w3.org/2000/svg" x="0" y="0" viewBox="0 0 708.7 170.1" style="enable-background:new 0 0 708.7 170.1" xml:space="preserve"><style>.st4{fill:#fff}</style><path style="fill:#d8d8d8" d="m94.4 8.6 66.9 38.6v77.2L94.4 163z"/><path d="M94.6 9.2c0 31.2 10.7 80.8 66.3 114.9l-66.3 38.3-66.2-38.3c53.1-31 66.3-83.6 66.3-114.9" style="fill:#fff;stroke:#323333;stroke-width:2.3336;stroke-miterlimit:10"/><circle cx="94.4" cy="122.9" r="13.2" style="fill:#323333"/><path style="fill:none;stroke:#323333;stroke-width:2.3336;stroke-miterlimit:10" d="m27.6 122.8 66.8 38.6 66.9-38.6V45.7L94.4 7.1v102.5"/><path class="st4" d="m213.4 73.4 9.4 63.2H206l-.9-11.4h-5.9l-1 11.4h-17l8.4-63.2h23.8zm-8.7 40.6c-.8-7.2-1.7-16-2.5-26.6-1.7 12.1-2.7 21-3.2 26.6h5.7zM240.9 84.8l-.6 6.8c2.3-4.9 5.6-7.5 10-7.8V102c-2.9 0-5 .4-6.4 1.2-1.4.8-2.2 1.9-2.5 3.3-.3 1.4-.5 4.6-.5 9.6v20.5h-15.8V84.8h15.8zM270 73.4v8.2h-16.2v-8.2H270zm0 11.4v51.8h-16.2V84.8H270zM307.9 101.3h-14v-2.8c0-2.4-.1-3.9-.4-4.6-.3-.6-1-1-2.1-1-.9 0-1.5.3-2 .9-.4.6-.7 1.5-.7 2.6 0 1.6.1 2.8.3 3.5.2.7.9 1.6 2 2.4 1.1.9 3.4 2.2 6.8 3.9 4.6 2.2 7.6 4.3 9 6.3 1.4 2 2.1 4.9 2.1 8.6 0 4.2-.5 7.4-1.6 9.6s-2.9 3.8-5.5 5c-2.6 1.2-5.7 1.7-9.3 1.7-4 0-7.4-.6-10.3-1.9s-4.8-2.9-5.9-5.1c-1.1-2.1-1.6-5.4-1.6-9.7v-2.5h14v3.3c0 2.8.2 4.6.5 5.4.4.8 1 1.2 2.1 1.2s1.9-.3 2.3-.8c.4-.6.7-1.7.7-3.5 0-2.5-.3-4-.9-4.6-.6-.6-3.7-2.5-9.2-5.5-4.6-2.6-7.5-5-8.5-7.1-1-2.1-1.5-4.6-1.5-7.6 0-4.1.5-7.2 1.6-9.2 1.1-2 2.9-3.5 5.6-4.6 2.6-1.1 5.7-1.6 9.1-1.6 3.4 0 6.4.4 8.8 1.3 2.4.9 4.3 2 5.5 3.5 1.3 1.4 2.1 2.8 2.3 4 .3 1.2.4 3.1.4 5.7v3.2zM349.5 84.8v51.8h-16.1l.3-4.3c-1.1 1.7-2.4 3.1-4 3.9s-3.4 1.3-5.5 1.3c-2.4 0-4.3-.4-5.9-1.2s-2.7-1.9-3.5-3.3c-.7-1.4-1.2-2.8-1.4-4.3-.2-1.5-.3-4.5-.3-8.9v-35h15.8V120c0 4 .1 6.4.4 7.2.2.8.9 1.1 2 1.1 1.2 0 1.9-.4 2.1-1.2.2-.8.3-3.3.3-7.5V84.8h15.8zM370.7 84.8l-.3 4.9c1.2-2 2.7-3.4 4.4-4.4 1.7-1 3.6-1.5 5.8-1.5 4.2 0 7.5 2 10 5.9 1.3-2 2.8-3.4 4.5-4.4 1.7-1 3.5-1.5 5.5-1.5 2.7 0 4.9.7 6.7 2 1.8 1.3 2.9 2.9 3.4 4.8s.7 5 .7 9.2v36.8h-15.3v-33.8c0-4.4-.2-7.2-.4-8.2-.3-1.1-1-1.6-2.1-1.6s-1.8.5-2.2 1.6c-.3 1-.5 3.8-.5 8.2v33.8h-15.3v-32.9c0-5.1-.1-8.1-.4-9.1-.2-1-.9-1.5-2.1-1.5-.7 0-1.3.3-1.8.8s-.8 1.2-.8 2c-.1.8-.1 2.4-.1 4.9v35.9h-15.3V84.8h15.6zM433.1 73.4v8.2h-16.2v-8.2h16.2zm0 11.4v51.8h-16.2V84.8h16.2zM453.3 73.4h12.3c7.9 0 13.3.4 16.1 1.1 2.8.7 4.9 1.9 6.4 3.6 1.5 1.7 2.4 3.5 2.7 5.6.4 2 .5 6.1.5 12.1v22.1c0 5.7-.3 9.5-.8 11.4-.5 1.9-1.5 3.4-2.8 4.5-1.3 1.1-3 1.8-4.9 2.3s-4.9.6-8.8.6h-20.7V73.4zm16.4 10.8v41.6c2.4 0 3.8-.5 4.4-1.4.5-1 .8-3.5.8-7.8V92c0-2.9-.1-4.7-.3-5.5-.2-.8-.6-1.4-1.2-1.8-.6-.3-1.9-.5-3.7-.5zM532.8 111.6h-20.4v11.2c0 2.3.2 3.9.5 4.5.3.7 1 1 2 1 1.2 0 2-.4 2.4-1.3.4-.9.6-2.6.6-5.2V115h15v3.8c0 3.2-.2 5.7-.6 7.4-.4 1.7-1.3 3.6-2.8 5.5s-3.4 3.4-5.6 4.4c-2.3 1-5.1 1.5-8.6 1.5-3.3 0-6.3-.5-8.8-1.4-2.6-1-4.5-2.3-6-4-1.4-1.7-2.4-3.5-2.9-5.5s-.8-5-.8-8.8v-15.1c0-4.5.6-8.1 1.8-10.7 1.2-2.6 3.2-4.6 6-6 2.8-1.4 6-2.1 9.6-2.1 4.4 0 8.1.8 11 2.5 2.9 1.7 4.9 3.9 6.1 6.7 1.2 2.8 1.7 6.7 1.7 11.7v6.7zm-15.8-8.4v-3.8c0-2.7-.1-4.4-.4-5.2-.3-.8-.9-1.2-1.8-1.2-1.1 0-1.8.3-2 1-.3.7-.4 2.5-.4 5.4v3.8h4.6zM570.2 101.3h-14v-2.8c0-2.4-.1-3.9-.4-4.6-.3-.6-1-1-2.1-1-.9 0-1.5.3-2 .9-.4.6-.7 1.5-.7 2.6 0 1.6.1 2.8.3 3.5.2.7.9 1.6 2 2.4 1.1.9 3.4 2.2 6.8 3.9 4.6 2.2 7.6 4.3 9 6.3 1.4 2 2.1 4.9 2.1 8.6 0 4.2-.5 7.4-1.6 9.6s-2.9 3.8-5.5 5c-2.6 1.2-5.7 1.7-9.3 1.7-4 0-7.4-.6-10.3-1.9s-4.8-2.9-5.9-5.1c-1.1-2.1-1.6-5.4-1.6-9.7v-2.5h14v3.3c0 2.8.2 4.6.5 5.4.4.8 1 1.2 2.1 1.2s1.9-.3 2.3-.8c.4-.6.7-1.7.7-3.5 0-2.5-.3-4-.9-4.6-.6-.6-3.7-2.5-9.2-5.5-4.6-2.6-7.5-5-8.5-7.1-1-2.1-1.5-4.6-1.5-7.6 0-4.1.5-7.2 1.6-9.2 1.1-2 2.9-3.5 5.6-4.6 2.6-1.1 5.7-1.6 9.1-1.6 3.4 0 6.4.4 8.8 1.3 2.4.9 4.3 2 5.5 3.5 1.3 1.4 2.1 2.8 2.3 4 .3 1.2.4 3.1.4 5.7v3.2zM591.9 73.4v8.2h-16.2v-8.2h16.2zm0 11.4v51.8h-16.2V84.8h16.2zM633.4 84.8v39.9c0 5.4-.1 8.9-.4 10.4-.2 1.6-1.1 3.2-2.6 5-1.5 1.8-3.6 3.1-6.3 4-2.7.9-6.1 1.4-10.2 1.4-5 0-9.1-.9-12.1-2.6-3-1.7-4.6-5.1-4.7-10.1h15.3c0 2.3.8 3.4 2.5 3.4 1.2 0 2-.4 2.4-1.1s.6-2.2.6-4.4V127c-1.4 1.2-2.8 2.2-4.3 2.8-1.5.6-3.1.9-4.7.9-2.8 0-5.2-.6-7-1.7-1.8-1.1-3.1-2.6-3.8-4.5-.7-1.9-1-4.5-1-7.9V97.7c0-4.9.9-8.5 2.7-10.6 1.8-2.2 4.5-3.2 8.1-3.2 2 0 3.8.4 5.4 1.2 1.6.8 3.1 2 4.4 3.6l1.1-3.9h14.6zm-15.8 13.7c0-2.4-.1-3.9-.4-4.5-.3-.7-.9-1-1.8-1s-1.6.4-1.9 1.1c-.4.7-.6 2.2-.6 4.4v17.4c0 2.3.1 3.8.4 4.5.3.7.9 1 1.8 1 1 0 1.7-.4 2-1.2.3-.8.5-2.7.5-5.7v-16zM655.1 84.8l-.3 4.8c1.1-1.9 2.5-3.3 4.2-4.3 1.7-1 3.6-1.4 5.7-1.4 2.7 0 4.9.6 6.6 1.9 1.7 1.3 2.8 2.9 3.3 4.8s.7 5.2.7 9.7v36.3h-15.8v-35.9c0-3.6-.1-5.7-.4-6.5s-.9-1.2-2-1.2-1.8.4-2.1 1.3c-.3.9-.4 3.3-.4 7.2v35H639V84.8h16.1z"/></svg>